<svg width="24" height="24" fill="none" xmlns="http://www.w3.org/2000/svg"><g clip-path="url(#clip0)" fill="#B1B1B1"><path d="M22.234 20a3.25 3.25 0 10-6.5 0 3.25 3.25 0 006.5 0z"/><path d="M18.984 16c-2.206 0-4 1.794-4 4s1.794 4 4 4 4-1.794 4-4-1.794-4-4-4zm0 6.5a2.503 2.503 0 01-2.5-2.5c0-1.378 1.121-2.5 2.5-2.5 1.38 0 2.5 1.122 2.5 2.5s-1.12 2.5-2.5 2.5zM22.234 4a3.25 3.25 0 10-6.5 0 3.25 3.25 0 006.5 0z"/><path d="M18.984 0c-2.206 0-4 1.794-4 4s1.794 4 4 4 4-1.794 4-4-1.794-4-4-4zm0 6.5a2.503 2.503 0 01-2.5-2.5c0-1.378 1.121-2.5 2.5-2.5 1.38 0 2.5 1.122 2.5 2.5s-1.12 2.5-2.5 2.5zM8.234 12a3.25 3.25 0 10-6.5 0 3.25 3.25 0 006.5 0z"/><path d="M4.984 8c-2.206 0-4 1.794-4 4s1.794 4 4 4 4-1.794 4-4-1.794-4-4-4zm0 6.5a2.503 2.503 0 01-2.5-2.5c0-1.378 1.121-2.5 2.5-2.5 1.38 0 2.5 1.122 2.5 2.5s-1.12 2.5-2.5 2.5z"/><path d="M7.345 12.48a1.002 1.002 0 00-.496 1.87l9.279 5.289a.998.998 0 001.364-.374 1.002 1.002 0 00-.374-1.364l-9.28-5.29a.993.993 0 00-.493-.131zm9.279-8.25a.994.994 0 00-.494.131l-9.28 5.29a1.001 1.001 0 00.99 1.738l9.28-5.29a1.001 1.001 0 00-.496-1.87z"/></g><defs><clipPath id="clip0"><path fill="#fff" transform="matrix(1 0 0 -1 0 24)" d="M0 0h24v24H0z"/></clipPath></defs></svg>