<svg width="210" height="170" fill="none" xmlns="http://www.w3.org/2000/svg"><path d="M52.107 86.253L37.296 77.36a.533.533 0 00-.485-.037.456.456 0 00-.277.367l-1.129 9.297-13.95-8.376a.532.532 0 00-.486-.037.46.46 0 00-.276.367l-2.682 22.111c-.023.177-.015.21.139.321.154.112.28-.013.446-.087l15.712-6.821 8.063-3.5 9.556-4.15c.169-.073.352-.082.358-.262.007-.179-.014-.203-.178-.301zm-12.702-20.57c1.298 2.534.268 5.494-2.303 6.609-2.57 1.115-5.708-.035-7.006-2.569s-.267-5.493 2.303-6.608c2.571-1.117 5.709.034 7.006 2.568zm76.765-39.604l7.83 1.473v7.02l-7.83 1.35a23.163 23.163 0 01-3.313 7.976l4.491 6.59-4.97 4.97-6.492-4.589a23.033 23.033 0 01-7.977 3.301L96.436 62h-7.02l-1.35-7.83a23.151 23.151 0 01-7.977-3.313l-6.578 4.491-4.97-4.97 4.59-6.492a23.13 23.13 0 01-3.301-7.977L62 34.436v-7.02l7.83-1.35a23.054 23.054 0 013.313-7.976l-4.492-6.579 4.97-4.97 6.505 4.59a22.895 22.895 0 017.977-3.301L89.576 0h7.02l1.35 7.83a23.054 23.054 0 017.977 3.313l6.578-4.491 4.97 4.97-4.59 6.492a23.073 23.073 0 013.289 7.965zM93 16.457c-8.026 0-14.53 6.517-14.53 14.53 0 8.015 6.504 14.531 14.53 14.531s14.53-6.504 14.53-14.53-6.504-14.53-14.53-14.53zm69.145 142.297L142.869 148c-1.246-.744-1.869-1.894-1.869-3.449 0-1.623.656-2.773 1.967-3.45l19.178-10.855v3.957c0 .27-.098.642-.295 1.116-.197.406-.492.71-.885.913l-13.67 7.71c-.525.406-.525.812 0 1.217l14.85 8.218v5.377zM178.564 127h3.836l-9.54 33.681c-.262.879-.852 1.319-1.77 1.319h-2.459l9.933-35zm10.027 3.246l19.177 10.855c1.377.744 2.066 1.894 2.066 3.45 0 1.555-.689 2.671-2.066 3.348l-19.177 10.855v-3.957c0-.203.065-.541.196-1.014.197-.474.492-.812.885-1.015l13.769-7.609c.525-.405.525-.811 0-1.217l-14.85-8.319v-5.377z" opacity=".2" fill="#84B5FF"/><path d="M125.876 19.077L62.911 45.203c-2.052.852-3.125 2.882-2.392 4.531l21.173 47.673c.733 1.65 2.967 2.235 4.986 1.308l61.939-28.436c1.843-.846 2.768-2.804 2.07-4.375l-20.16-45.389c-.697-1.57-2.778-2.215-4.651-1.438z" fill="#276ED8"/><g opacity=".5" filter="url(#filter0_d)"><path d="M129.44 20.97l20.174 45.422c.476 1.071-.151 2.402-1.407 2.98l-28.452 13.037-33.528 15.366c-1.374.63-2.921.243-3.42-.88L61.65 49.262c-.498-1.121.26-2.515 1.656-3.095l62.958-26.175c1.059-.44 2.217-.215 2.852.486.129.145.242.309.323.491z" fill="#fff"/></g><path d="M126.194 30.926l.65 1.461 3.596-1.527-.648-1.457-3.598 1.523zM75.528 55.44l-6.831 2.922L68 56.793l6.835-2.915.693 1.562zm37.213-15.918l-32.83 14.043-.691-1.557L112.066 38l.675 1.522zM88.596 55.947l-6.721 2.89-.691-1.557 6.724-2.883.688 1.55zm36.62-15.745L92.909 54.093l-.686-1.546 32.323-13.856.67 1.511zM82.084 68.445l-6.815 2.96-.697-1.57 6.818-2.952.694 1.562zm37.121-16.125l-32.75 14.226-.691-1.558 32.765-14.19.676 1.522zM95.124 67.89l-6.704 2.928-.692-1.557 6.708-2.92.688 1.55zm36.529-15.948l-32.228 14.07-.686-1.545 32.244-14.036.67 1.511zm6.544 1.189l-26.305 11.66-.681-1.534 26.317-11.63.669 1.504zm-49.632 31.66l-6.77 3.061-.697-1.57 6.773-3.053.694 1.562zm36.876-16.674l-32.533 14.71-.692-1.557 32.549-14.675.676 1.522zm-23.91 15.956l-6.66 3.026-.691-1.557 6.663-3.02.688 1.551zm36.289-16.49L105.804 82.13l-.686-1.545 32.031-14.513.671 1.51z" fill="#fff"/><path d="M129.439 20.97l20.175 45.422c.475 1.071-.152 2.402-1.407 2.979l-28.451 13.038-21.43-48.25 30.801-13.686c.131.145.231.314.312.496z" fill="#fff"/><path d="M125.876 19.076L62.911 45.203c-2.052.851-3.125 2.881-2.392 4.53l.951 2.144 69.964-29.321-.907-2.04c-.697-1.572-2.778-2.218-4.651-1.44z" fill="#276ED8"/><path d="M66.747 46.8c.239.537-.05 1.173-.647 1.42-.596.248-1.275.012-1.514-.526-.24-.539.052-1.175.649-1.422.597-.247 1.274-.01 1.512.527zm3.778-1.564c.238.536-.05 1.17-.642 1.415-.594.246-1.268.011-1.506-.526-.239-.537.05-1.17.644-1.416.592-.244 1.265-.008 1.504.527zm3.754-1.553c.237.534-.048 1.166-.637 1.41-.59.244-1.26.01-1.499-.526-.237-.535.049-1.167.638-1.41.59-.244 1.26-.009 1.498.526z" fill="#fff"/><path opacity=".35" d="M105.741 46.69l26.404-11.225a.361.361 0 00.196-.202.37.37 0 00-.006-.283l-3.7-8.33a.369.369 0 00-.478-.192l-26.499 11.013a.356.356 0 00-.194.199.366.366 0 00.007.281l3.797 8.55a.364.364 0 00.473.19zm28.22-7.525l-26.64 11.434a.353.353 0 00-.191.198.366.366 0 00.008.278l11.861 26.706c.04.09.115.161.206.197a.365.365 0 00.283-.008l26.355-12.075a.36.36 0 00.179-.475l-11.577-26.065a.372.372 0 00-.484-.19z" fill="#84B5FF"/><path d="M52.307 97L43 118l14-1.012L52.307 97z" fill="#195BBE"/><path d="M162.884 95.92v70.522l-60.662 3.555-.131.002-3.94-40.109 3.931-41.682.141.008 60.661 7.703z" fill="#276ED8"/><path d="M101.994 88.208v81.791l-49.656-5.595V96.882l10.113-1.774 17.826-3.11 21.717-3.79z" fill="#3E85EE"/><path d="M101.961 88.21l27.161 25.341 52.876 2.971-19.378-20.603-60.659-7.71z" fill="#195BBE"/><path d="M178.057 82.763a2.7 2.7 0 01-1.624.237l-51.396-9.055a2.411 2.411 0 01-1.671-1.128c-.386-.636-.476-1.448-.246-2.227l8.701-29.431 56.165 11.493-8.193 28.07a3.324 3.324 0 01-1.736 2.04z" fill="#2DA531"/><path d="M132.658 42.54l-8.359 28.28c-.278.94.206 1.825 1.079 1.979l51.388 9.054c.787.14 1.638-.47 1.901-1.36l7.918-26.787-53.927-11.165z" fill="#fff"/><path d="M188.103 49.093l-53.064-11.158c-.896-.19-1.849.417-2.124 1.353l-.854 2.89 56.221 11.568.809-2.738c.261-.889-.181-1.745-.988-1.915z" fill="#06B25F"/><path opacity=".2" d="M138.156 70.096l-3.887-.657 6.206-20.491 3.864.736-6.183 20.412z" fill="#A7CFFF"/><path d="M138.116 69.873l-3.878-.656 2.586-8.857 3.873.675-2.581 8.838z" fill="#84B5FF"/><path opacity=".2" d="M148.651 72.29l-3.806-.643 6.14-20.273 3.782.72-6.116 20.196z" fill="#A7CFFF"/><path d="M148.532 72.29l-3.802-.642 3.844-13.065 3.783.704-3.825 13.003z" fill="#84B5FF"/><path opacity=".2" d="M158.92 74.438l-3.726-.63 6.076-20.058 3.702.706-6.052 19.982z" fill="#A7CFFF"/><path d="M158.966 74.108l-3.724-.63 5.19-17.138 3.704.695-5.17 17.073z" fill="#84B5FF"/><path opacity=".2" d="M168.978 76.542l-3.648-.617 6.012-19.849 3.626.69-5.99 19.776z" fill="#A7CFFF"/><path d="M168.74 76.2l-3.634-.615 2.08-6.879 3.627.642-2.073 6.853z" fill="#84B5FF"/><defs><filter id="filter0_d" x="49.498" y="11.767" width="112.275" height="102.31" filterUnits="userSpaceOnUse" color-interpolation-filters="sRGB"><feFlood flood-opacity="0" result="BackgroundImageFix"/><feColorMatrix in="SourceAlpha" values="0 0 0 0 0 0 0 0 0 0 0 0 0 0 0 0 0 0 127 0" result="hardAlpha"/><feOffset dy="4"/><feGaussianBlur stdDeviation="6"/><feColorMatrix values="0 0 0 0 0.160784 0 0 0 0 0.0941176 0 0 0 0 0.435294 0 0 0 0.15 0"/><feBlend in2="BackgroundImageFix" result="effect1_dropShadow"/><feBlend in="SourceGraphic" in2="effect1_dropShadow" result="shape"/></filter></defs></svg>