<svg width="322" height="383" fill="none" xmlns="http://www.w3.org/2000/svg"><mask id="mask0" maskUnits="userSpaceOnUse" x="0" y="0" width="322" height="383"><rect width="322" height="383" rx="16" fill="#3D27C7"/></mask><g mask="url(#mask0)"><path d="M253.067 131.909c2.466 2.836 7.009 3.081 10.161.546l9.038-7.286c3.152-2.535 3.704-6.9 1.238-9.736-2.465-2.836-7.009-3.08-10.16-.546l-9.531 10.278c-3.143 2.54-3.212 3.908-.746 6.744zm8.108 15.517c2.912 2.192 7.3 1.591 9.786-1.333l7.16-8.401c2.494-2.925 2.15-7.07-.762-9.262s-7.3-1.591-9.785 1.333l-7.027 11.265c-2.503 2.927-2.292 4.208.628 6.398z" fill="#DEC29B"/><path d="M267.084 157.834c2.691 1.692 6.458.892 8.423-1.783l5.624-7.702c1.963-2.683 1.37-6.23-1.322-7.922-2.691-1.692-6.459-.892-8.423 1.783l-5.305 10.161c-1.964 2.675-1.689 3.771 1.003 5.463z" fill="#DEC29B"/><path d="M302.676 124.728s-25.541 4.714-27.904 5.249c-2.372.536-15.816-12.84-9.751-17.886 10.42-8.701 37.655 12.637 37.655 12.637z" fill="#D3AF85"/><path d="M303.451 125.617s-25.782 4.794-28.167 5.338c-2.394.545 27.614 30.859 30.268 18.035 2.662-12.826-2.101-23.373-2.101-23.373z" fill="#DEC29B"/><path d="M247.473 120.061c2.36 2.912 6.884 3.292 10.107.846l9.252-7.022c3.223-2.446 3.918-6.792 1.558-9.703-2.359-2.912-6.883-3.292-10.106-.846l-9.834 10.002c-3.225 2.437-3.337 3.812-.977 6.723z" fill="#EAD7B7"/><path d="M255.37 109.463c.186 3.713 3.538 6.38 7.481 5.964l22-2.683c3.944-.415 6.993-3.767 6.806-7.479-.186-3.713-3.537-6.38-7.481-5.965 0 0-11.169 1.849-22 2.683-3.95.303-6.992 3.767-6.806 7.48z" fill="#EAD7B7"/><path d="M276.966 104.015c-2.955 4.029-2.946 7.436.472 10.717 3.824 3.676 7.45 7.129 12.371 7.744 2.697 9.173 12.07 11.347 12.07 11.347 4.049 2.559 11.108-1.352 14.063-5.381s2.074-9.376-1.976-11.934c0 0-11.708-6.183-24.318-15.154-3.883-2.772-9.719-1.369-12.682 2.661z" fill="#EAD7B7"/><path d="M258.429 105.022l.074-.038c2.445-1.252 5.192-1.543 7.733-.833 2.541.71 4.577 2.342 5.723 4.581l2.733 5.24-9.407 1.174-7.819 5.937c-.537.412-1.12.74-1.721.997l-2.078-3.993c-2.352-4.61-.223-10.47 4.762-13.065z" fill="#DEC29B"/><path d="M310.271 117.91c-6.231.676-9.902 10.885-14.16 13.448-13.676 8.232-6.55 35.002-6.55 35.002-1.762 9.465 3.755 21.303 13.874 25.876 11.963 5.407 22.718-2.174 22-15.646l-3-50.506c-.27-5.439-3.374-7.152-7.392-8.975l-4.772.801z" fill="#EAD7B7"/><g filter="url(#filter0_d)"><path d="M169.844 173.456c-.457.082-.878-.158-1.019-.568.002-.056-.005-.111-.013-.174l-4.317-32.68c-.057-1.343.543-1.45 1.066-1.553.695-.125 2.02-.13 4.378.542l3.075.859-.046-.354c1.09.065 2.202-.004 3.307-.202 7.523-1.365 12.855-8.26 11.918-15.387-.943-7.108-7.792-11.805-15.279-10.466-1.133.203-2.22.536-3.254.981l-.05-.38-2.712 1.931c-1.515 1.087-2.842 1.75-3.824 1.926-.733.131-1.018-.04-1.187-.214-.212-.203-.374-.554-.47-.991l-4.285-32.436c-.007-.054-.015-.117-.032-.17.031-.441.372-.817.828-.908l34.33-6.207c1.771-.475 3-1.445 3.531-2.755.643-1.58.254-3.52-1.143-5.792l.067-.012-.924-1.262a9.27 9.27 0 01-1.767-4.365c-.739-5.54 3.425-10.92 9.263-11.974 5.858-1.048 11.197 2.613 11.928 8.155.207 1.594.017 3.204-.558 4.78l-.562 1.528.067-.012c-.824 2.808-.721 4.801.301 6.064.58.712 1.747 1.523 4.026 1.282l34.493-6.236c.524-.094 1.005.237 1.079.733l4.31 32.626c.587 2.565 2.45 3.779 4.994 3.324 1.114-.199 2.381-.723 3.781-1.575l.008.063 1.375-.969a11.498 11.498 0 014.666-1.975c5.858-1.048 11.198 2.613 11.928 8.155.359 2.688-.416 5.422-2.16 7.681a11.516 11.516 0 01-7.102 4.302c-1.695.303-3.353.22-4.952-.236l-1.559-.444.008.063c-1.674-.358-3.057-.426-4.219-.218-2.487.445-3.846 2.208-3.719 4.837l4.33 32.779c.064.498-.311.983-.835 1.076l-34.464 6.232c-1.405.14-1.479-.431-1.553-.928-.086-.661-.007-1.926.841-4.247l1.09-3.013-.381.068a12.453 12.453 0 00-.005-3.187c-.943-7.108-7.792-11.806-15.279-10.466-7.524 1.355-12.855 8.26-11.918 15.387a12.07 12.07 0 00.814 3.043l-.39.07 1.834 2.49c1.03 1.4 1.648 2.625 1.769 3.558.089.688-.106.983-.298 1.156-.227.207-.602.395-1.073.516l-34.056 6.149z" fill="#06B25F"/></g><path d="M202.35 109.576l6.786-16.039 3.945 4.733-4.014 10.024 5.692 6.799-2.771 6.015-9.638-11.532z" fill="#fff"/><path d="M213.979 99.47l-2.418 5.948 1.251 1.132 6.363-1.214-5.196-5.866zm.093 13.354l-3.945-4.733 16.261-3.103 10.888 12.665-6.363 1.214-6.944-7.932-9.897 1.889z" fill="#fff"/><path d="M223.052 112.139l-6.009 1.147-4.158 9.022-10.604 2.024-2.466 5.614 17.369-2.972 5.868-14.835zm2.503 2.265l-2.475.473-2.418 5.947 8.837-1.687-3.944-4.733z" fill="#fff"/><path d="M210.029 120.11l-3.897-4.399-3.689 7.219 6.717-1.282.869-1.538z" fill="#fff"/><path d="M271.638 158.265l-8.295-24.048-8.42-16.045c-2.115-4.108-.196-9.28 4.292-11.555 4.488-2.275 9.846-.794 11.961 3.314l7.073 13.472 16.538 23.116c2.839 4.47-.225 11.153-7.054 14.613-6.82 3.466-14.091 2.038-16.095-2.867z" fill="#EAD7B7"/><path d="M273.633 172.434c4.149 22.602 29.215 27.603 42.396 20.746 13.181-6.857 9.032-22.153 8.332-42.07-.387-11.033-17.819 8.558-35.643-12.134-9.426.756-15.678 4.396-21.095 7.217.009-.002 2.575 7.566 6.01 26.241z" fill="#EAD7B7"/><path d="M325.898 183.962c-2.427 15.758.895 20.296 3.072 24.456l-29.7 15.461s1.206-15.897-14.742-33.559c24.965-9.299 41.37-6.358 41.37-6.358z" fill="#EAD7B7"/><path d="M367.839 326.713l-40.633-129.799-31.898 17.413 30.455 150.422 42.076-38.036z" fill="#276ED8"/><path d="M59.142 138.467l-3.476-9.955c-1.018-2.066-2.964-3.56-4.865-3.934-4.73-1.718-11.231-4.144-15.518-5.742-1.041-.904-2.545-1.323-3.944-1.48-.34-.124-.525-.201-.525-.201-1.27-.349-2.502-.129-3.492.503-9.226 3.919-19.611 9.453-19.611 9.453-2.497 1.574-1.277 7 .813 9.593 2.09 2.592 9.115 11.641 11.603 10.064 0 0 2.75-8.899 6.528-12.052 1.93-.205 5.477-2.729 8.462-5.186 3.535 1.305 8.24 2.774 12.97 3.413l2.905 5.87c1.38 2.789 4.435 4.54 6.822 3.905 2.386-.635 2.709-1.462 1.328-4.251z" fill="#DEC29B"/><path d="M59.966 141.01c.027-.604-.255-1.413-.813-2.539l-3.476-9.955c-1.02-2.067-2.965-3.56-4.866-3.934-4.73-1.719-11.232-4.145-15.518-5.742-1.042-.905-2.546-1.324-3.945-1.48-.34-.125-.525-.201-.525-.201-1.27-.35-2.502-.13-3.492.503-9.226 3.918-19.612 9.452-19.612 9.452-2.497 1.574-1.277 7.001.814 9.593 2.09 2.593 9.114 11.642 11.603 10.065 0 0 1.048-3.374 2.732-6.707.928-2.232 2.092-4.402 3.46-5.759 2.083-.381 5.723-3.477 8.758-6.447 3.97 1.182 9.23 2.448 14.453 2.795l3.696 6.327c1.507 2.602 4.342 4.232 6.73 4.029z" fill="#D3AF85"/><path d="M67.507 134.374l-4.469-12.792c-1.314-2.657-3.809-4.568-6.257-5.059a2633.287 2633.287 0 01-19.935-7.379c-1.335-1.162-3.264-1.703-5.072-1.902-.434-.159-.67-.254-.67-.254-1.627-.447-3.221-.169-4.487.645-11.856 5.028-25.199 12.141-25.199 12.141-3.201 2.02-1.642 8.991 1.04 12.323 2.692 3.327 11.707 14.957 14.908 12.937 0 0 3.537-11.433 8.389-15.487 2.479-.26 7.033-3.511 10.866-6.66 4.535 1.68 10.588 3.56 16.662 4.386l3.733 7.543c1.77 3.578 5.697 5.832 8.762 5.014 3.064-.817 3.499-1.878 1.729-5.456z" fill="#DEC29B"/><path d="M68.552 137.637c.037-.775-.322-1.811-1.043-3.262l-4.469-12.793c-1.314-2.656-3.809-4.567-6.258-5.059a2678.756 2678.756 0 01-19.934-7.378c-1.336-1.162-3.265-1.704-5.073-1.903-.434-.159-.67-.254-.67-.254-1.627-.447-3.221-.169-4.487.645-11.856 5.028-25.2 12.141-25.2 12.141-3.201 2.021-1.641 8.991 1.04 12.323 2.692 3.328 11.707 14.958 14.909 12.937 0 0 1.343-4.336 3.506-8.622 1.189-2.866 2.683-5.654 4.443-7.407 2.682-.485 7.354-4.464 11.25-8.279 5.095 1.52 11.865 3.148 18.559 3.596l4.752 8.124c1.964 3.351 5.606 5.451 8.675 5.191z" fill="#D3AF85"/><path d="M73.226 127.92l-6.032-13.946c-1.675-2.859-4.57-4.812-7.288-5.172-6.836-1.999-16.248-4.836-22.45-6.717-1.564-1.198-3.72-1.651-5.716-1.736-.486-.146-.762-.231-.762-.231-1.82-.378-3.529.057-4.841 1.061C13.634 107.705-.305 116.66-.305 116.66c-3.316 2.502-.987 10.171 2.247 13.677 3.241 3.509 14.137 15.806 17.462 13.306 0 0 2.835-13.037 7.766-17.936 2.689-.482 7.373-4.458 11.279-8.272 5.107 1.529 11.893 3.168 18.604 3.625l4.763 8.139c2.26 3.863 6.745 6.077 10.03 4.934 3.273-1.13 3.64-2.35 1.38-6.213z" fill="#DEC29B"/><path d="M27.348 138.205s-4.304 11.116 8.223 20.657c-12.378-6.079-18.716-22.018-16.318-30.283 2.407-8.261 8.095 9.626 8.095 9.626z" fill="#D3AF85"/><path d="M79.376 91.767c-.624 3.464-4.915 5.327-9.576 4.157l-13.398-3.36c-4.67-1.173-7.944-4.93-7.32-8.393.625-3.464 4.916-5.327 9.577-4.158l15.756 5.9c4.66 1.169 5.585 2.39 4.961 5.854z" fill="#EAD7B7"/><path d="M61.394 85.319c2.154 4.161.652 7.947-2.606 9.669-11.925 6.291-27.212 7.783-27.212 7.783-3.588 1.173-8.246-1.248-10.398-5.417-2.155-4.162-.985-8.488 2.605-9.669 0 0 19.52-4.111 30.676-6.623 3.746-.856 4.782.088 6.935 4.257z" fill="#EAD7B7"/><path d="M27.411 87.86c3.586 2.418 8.616 2.37 7.19 6.64-1.598 4.785-7.188 19.012-10.648 21.503-2.897 6.992-1.996 21.666-1.996 21.666-2.147 3.882-14.341-4.767-17.927-7.186-3.586-2.419-7.458-9.517-5.313-13.392 0 0 9.597-14.969 18.491-26.608.764-1.003 6.618-5.042 10.203-2.623z" fill="#EAD7B7"/><path d="M11.935 118.982c6.061 2.438 11.6 3.198 11.303 7.628-.971 14.848 6.965 27.232 13.498 29.159 10.085 2.98-25.136 31.626-36.384 32.837-13.302 1.428-22.173-8.595-18.119-20.655l12.314-48.208c1.616-4.872 8.337-2.399 12.814-2.888l4.574 2.127z" fill="#EAD7B7"/><path d="M17.792 196.047c10.356-1.341 19.124-5.222 26.675-8.505 2.89-1.258 13.358-6.801 21.245-9.734l12.672-11.623c1.727-1.972 8.744-4.331 7.053-8.839-1.69-4.508-9.142-6.696-13.632-5.752-7.42 1.562-12.409 8.916-16.336 9.915-23.215-4.797-28.166-5.356-28.166-5.356-5.308.603-46.271 14.432-43.7 21.287 2.562 6.849 28.902 19.287 34.189 18.607z" fill="#EAD7B7"/><path d="M34.471 179.833c-9.617 19.277-35.746 16.475-47.185 6.391-11.44-10.085-3.6-22.73 1.935-40.587 3.063-9.889 11.887 13.08 34.634-.468 5.65 9.882 7.73 12.054 21.18 15.324 2.168-.886-2.618 3.399-10.564 19.34z" fill="#EAD7B7"/><path d="M-16.536 160.364c-3.229 21.116-8.137 26.172-11.765 31.019l30.54 35.458s5.697-15.782 24.34-42.463c-21.374-18.477-43.115-24.014-43.115-24.014z" fill="#EAD7B7"/><path d="M-5.328 237.998l18.631-27.826-36.986-21.371-28.858 31.85 47.213 17.347z" fill="#84B5FF"/><g filter="url(#filter1_d)"><path d="M43.331 129.797c-.447-.161-.74-.592-.703-1.027.025-.048.044-.109.06-.16l9.374-31.104c.501-1.214 1.08-1.006 1.602-.819.68.245 1.883.917 3.746 2.724l2.437 2.338.104-.345a15.677 15.677 0 003.098 1.516c3.563 1.281 7.289 1.197 10.51-.224 3.22-1.422 5.532-4.01 6.524-7.295 2.046-6.774-2.265-14.44-9.603-17.079-1.1-.396-2.21-.66-3.327-.795l.107-.353-3.238.316c-1.821.176-3.293.087-4.254-.259-.708-.255-.907-.555-.99-.795-.11-.288-.114-.682-.024-1.118l9.316-30.875a.945.945 0 00.04-.167c.207-.375.668-.534 1.116-.373l33.621 12.072c1.798.484 3.305.252 4.315-.627 1.222-1.07 1.666-2.983 1.323-5.715l.065.023-.326-1.589c-.342-1.642-.284-3.236.177-4.761.773-2.56 2.572-4.579 5.089-5.69 2.517-1.11 5.418-1.166 8.187-.17 5.726 2.059 9.08 8.033 7.484 13.316a8.864 8.864 0 01-2.453 3.944l-1.137 1.062.065.023c-1.885 2.065-2.606 3.87-2.191 5.51.237.925.967 2.239 3.121 3.186l33.787 12.141c.512.185.815.724.672 1.198l-9.362 31.06c-.51 2.578.687 4.604 3.186 5.503 1.091.392 2.452.576 4.055.54l-.019.061 1.64-.156a11.468 11.468 0 015.026.642c5.726 2.059 9.08 8.033 7.484 13.317-.773 2.56-2.572 4.578-5.089 5.689-2.505 1.106-5.418 1.167-8.187.171a12.17 12.17 0 01-4.392-2.745l-1.23-1.198-.018.061c-1.373-1.172-2.606-1.95-3.744-2.359-2.433-.876-4.371-.005-5.321 2.386l-9.415 31.203c-.143.474-.68.711-1.193.526l-33.752-12.119c-1.327-.602-1.166-1.136-1.02-1.619.19-.629.774-1.709 2.493-3.326l2.218-2.107-.373-.135c.553-.871.983-1.815 1.288-2.824 2.046-6.774-2.265-14.44-9.604-17.079-3.562-1.281-7.288-1.197-10.509.224-3.22 1.422-5.532 4.011-6.524 7.295a11.886 11.886 0 00-.504 3.105l-.383-.137.654 3.14c.366 1.765.42 3.161.15 4.057-.198.655-.495.816-.74.871-.291.077-.705.043-1.172-.087l-33.337-11.989z" fill="#276ED8"/></g></g><defs><filter id="filter0_d" x="145.1" y="42.666" width="150.107" height="146.806" filterUnits="userSpaceOnUse" color-interpolation-filters="sRGB"><feFlood flood-opacity="0" result="BackgroundImageFix"/><feColorMatrix in="SourceAlpha" values="0 0 0 0 0 0 0 0 0 0 0 0 0 0 0 0 0 0 127 0" result="hardAlpha"/><feOffset dy="4"/><feGaussianBlur stdDeviation="6"/><feColorMatrix values="0 0 0 0 0.160784 0 0 0 0 0.0941176 0 0 0 0 0.435294 0 0 0 0.25 0"/><feBlend in2="BackgroundImageFix" result="effect1_dropShadow"/><feBlend in="SourceGraphic" in2="effect1_dropShadow" result="shape"/></filter><filter id="filter1_d" x="30.625" y="28.738" width="154.807" height="149.852" filterUnits="userSpaceOnUse" color-interpolation-filters="sRGB"><feFlood flood-opacity="0" result="BackgroundImageFix"/><feColorMatrix in="SourceAlpha" values="0 0 0 0 0 0 0 0 0 0 0 0 0 0 0 0 0 0 127 0" result="hardAlpha"/><feOffset dy="4"/><feGaussianBlur stdDeviation="6"/><feColorMatrix values="0 0 0 0 0.160784 0 0 0 0 0.0941176 0 0 0 0 0.435294 0 0 0 0.25 0"/><feBlend in2="BackgroundImageFix" result="effect1_dropShadow"/><feBlend in="SourceGraphic" in2="effect1_dropShadow" result="shape"/></filter></defs></svg>