<svg width="204" height="202" fill="none" xmlns="http://www.w3.org/2000/svg"><g opacity=".2" clip-path="url(#clip0)" fill="#84B5FF"><path d="M129.763 39.472c-9.018-9.018-9.018-23.691 0-32.709 9.018-9.018 23.691-9.018 32.708 0 7.651 7.65 8.81 19.029 3.48 27.914 0 0-.383.642.134 1.159l11.8 11.8c2.349 2.348 2.908 5.633.825 7.716l-.359.358c-2.083 2.083-5.367 1.524-7.715-.824L158.86 43.11c-.542-.542-1.184-.159-1.184-.159-8.885 5.33-20.263 4.172-27.913-3.479zm28.438-4.27c6.664-6.663 6.664-17.505 0-24.168-6.663-6.663-17.505-6.664-24.168 0-6.663 6.663-6.663 17.505 0 24.168s17.505 6.663 24.168 0z"/><path d="M156.726 21.745a2.387 2.387 0 002.197-3.318c-3.229-7.63-12.064-11.212-19.695-7.983a2.387 2.387 0 101.861 4.397c5.206-2.203 11.235.24 13.438 5.447a2.387 2.387 0 002.199 1.457z"/></g><g opacity=".2" clip-path="url(#clip1)" fill="#84B5FF"><path d="M65.604 121.917H1.396c-.838 0-1.396.558-1.396 1.396v19.541c0 3.909 3.07 6.979 6.98 6.979h53.04c3.91 0 6.98-3.071 6.98-6.979v-19.541c0-.838-.558-1.396-1.396-1.396zM9.771 133.083h11.166c.838 0 1.396.559 1.396 1.396 0 .838-.558 1.396-1.395 1.396H9.77c-.838 0-1.396-.558-1.396-1.396 0-.837.558-1.396 1.396-1.396zm19.541 8.375H9.771c-.838 0-1.396-.558-1.396-1.395 0-.838.558-1.396 1.396-1.396h19.541c.838 0 1.396.558 1.396 1.396 0 .837-.558 1.395-1.395 1.395zm23.73 0c-1.117 0-1.955-.279-2.792-.837-.837.558-1.675.837-2.792.837-3.07 0-5.583-2.512-5.583-5.583s2.513-5.583 5.583-5.583c1.117 0 1.955.279 2.792.837.837-.558 1.675-.837 2.792-.837 3.07 0 5.583 2.512 5.583 5.583s-2.513 5.583-5.583 5.583zm6.978-36.291H6.98c-3.91 0-6.98 3.071-6.98 6.979v2.792c0 .837.558 1.395 1.396 1.395h64.208c.838 0 1.396-.558 1.396-1.395v-2.792c0-3.908-3.07-6.979-6.98-6.979z"/></g><g opacity=".2" clip-path="url(#clip2)" fill="#84B5FF"><path d="M182.602 178.668h-34.935a1.928 1.928 0 01-1.858-1.402l-7.734-27.071a1.93 1.93 0 011.858-2.465h47.132l1.383-6.219a1.933 1.933 0 011.888-1.515h11.73a1.933 1.933 0 110 3.867h-10.178l-6.983 31.421a5.803 5.803 0 013.497 5.318 5.807 5.807 0 01-5.8 5.801h-34.935a1.932 1.932 0 01-1.933-1.934c0-1.068.864-1.933 1.933-1.933h34.935a1.936 1.936 0 001.933-1.934 1.936 1.936 0 00-1.933-1.934z"/><path d="M184.535 192.204a5.807 5.807 0 01-5.801 5.801 5.807 5.807 0 01-5.801-5.801 5.807 5.807 0 015.801-5.801 5.807 5.807 0 015.801 5.801zm-27.199 0a5.808 5.808 0 01-5.801 5.801 5.807 5.807 0 01-5.801-5.801 5.807 5.807 0 015.801-5.801 5.808 5.808 0 015.801 5.801z"/></g><g filter="url(#filter0_d)"><path d="M136.654 26H67.346C62.185 26 58 30.173 58 35.324v141.304c0 5.191 4.229 9.324 9.346 9.324h69.308c5.16 0 9.346-4.172 9.346-9.324V35.323c0-5.195-4.235-9.323-9.346-9.323z" fill="#276ED8"/><path d="M141.471 38.707H62.533v134.537h78.938V38.707z" fill="#F0F6FF"/><path d="M117.61 73.323l-21.263 6.246-3.147 6.088-6.386-.052-15.564 17.062 15.564 17.06 6.383-.053 3.154 6.084 21.259 6.246 5.696-23.301-3.236-6.036 3.236-6.035-5.696-23.309zM93.712 86.636l16.265-4.583-9.336 17.732H81.965l11.747-13.149zm0 32.058l-11.747-13.148h18.676l9.336 17.731-16.265-4.583zm20.817 1.701l-9.34-17.728 9.34-17.735 4.51 17.735-4.51 17.728z" fill="#06B25F"/><path d="M118.276 34.48H85.855a.678.678 0 01-.68-.679v-.33c0-.374.304-.678.68-.678h32.421c.374 0 .679.302.679.677v.331a.68.68 0 01-.679.678z" fill="#fff"/><path opacity=".2" d="M141.471 165.287H62.533v7.958h78.938v-7.958zm0-126.58H62.533v7.14h78.938v-7.14z" fill="#84B5FF"/></g><defs><clipPath id="clip0"><path fill="#fff" transform="matrix(-1 0 0 1 180 0)" d="M0 0h57v57H0z"/></clipPath><clipPath id="clip1"><path fill="#fff" transform="translate(0 94)" d="M0 0h67v67H0z"/></clipPath><clipPath id="clip2"><path fill="#fff" transform="matrix(-1 0 0 1 204 136)" d="M0 0h66v66H0z"/></clipPath><filter id="filter0_d" x="46" y="18" width="112" height="183.952" filterUnits="userSpaceOnUse" color-interpolation-filters="sRGB"><feFlood flood-opacity="0" result="BackgroundImageFix"/><feColorMatrix in="SourceAlpha" values="0 0 0 0 0 0 0 0 0 0 0 0 0 0 0 0 0 0 127 0" result="hardAlpha"/><feOffset dy="4"/><feGaussianBlur stdDeviation="6"/><feColorMatrix values="0 0 0 0 0.160784 0 0 0 0 0.0941176 0 0 0 0 0.435294 0 0 0 0.25 0"/><feBlend in2="BackgroundImageFix" result="effect1_dropShadow"/><feBlend in="SourceGraphic" in2="effect1_dropShadow" result="shape"/></filter></defs></svg>