<svg width="320" height="382" fill="none" xmlns="http://www.w3.org/2000/svg"><g opacity=".2" clip-path="url(#clip0)" fill="#84B5FF"><path d="M103.949 36.158a2.35 2.35 0 01-3.208-.859l-3.064-5.306a2.35 2.35 0 014.068-2.348l3.063 5.306a2.35 2.35 0 01-.859 3.207zm22.078-2.906a2.35 2.35 0 01-3.443-2.644l1.587-5.919a2.348 2.348 0 114.537 1.216l-1.586 5.92a2.356 2.356 0 01-1.095 1.427zm22.972 10.493l-5.306 3.063a2.35 2.35 0 01-2.348-4.067l5.306-3.063a2.35 2.35 0 012.348 4.067zm3.52 26.727c-.521.3-1.155.403-1.781.233l-5.92-1.586a2.35 2.35 0 011.216-4.538l5.919 1.586a2.348 2.348 0 01.566 4.305zM109.38 95.378a2.348 2.348 0 01-3.442-2.644l1.586-5.919a2.348 2.348 0 114.537 1.216l-1.586 5.92a2.342 2.342 0 01-1.095 1.427zM93.299 75.903l-5.306 3.064a2.349 2.349 0 01-2.348-4.067l5.306-3.064a2.349 2.349 0 012.348 4.067zm-2.906-22.078a2.33 2.33 0 01-1.781.234l-5.92-1.586a2.349 2.349 0 111.216-4.538l5.92 1.586a2.349 2.349 0 01.565 4.304zm49.152 25.203l1.957 3.39c1.503 2.603.597 5.981-2.006 7.484l-6.778 3.914c-2.278 1.315-5.747 1.004-7.938-2.792l-1.503-2.603 16.268-9.393zm-18.781-41.36c-6.529-1.038-13.2.933-18.216 5.456-6.325 5.64-8.773 14.862-6.116 22.908 2.74 8.252 9.732 13.976 18.226 15.037 2.289.27 4.465 1.472 6.081 3.394l.016.028c.038-.059.12-.106.174-.137l16.268-9.393a.283.283 0 01.151-.05l-.015-.028c-.81-2.28-.686-4.882.34-7.427 2.484-6.279 2.01-13.235-1.371-19.092a21.83 21.83 0 00-15.538-10.696zm7.509 17.14a2.366 2.366 0 01-3.208-.86 8.605 8.605 0 00-11.761-3.152 2.366 2.366 0 01-3.208-.86 2.365 2.365 0 01.86-3.207c6.344-3.663 14.513-1.474 18.176 4.87a2.366 2.366 0 01-.859 3.208z"/><path d="M120.739 84.463l.19-.11a.519.519 0 00-.174.138l-.016-.028zm16.594-9.58l.015.027c-.07.004-.097.02-.151.051l.136-.078z"/></g><path opacity=".2" d="M119.665 165.761l8.335 1.568v7.473l-8.335 1.437a24.64 24.64 0 01-3.527 8.491l4.781 7.016-5.291 5.291-6.911-4.886a24.512 24.512 0 01-8.491 3.514L98.658 204h-7.473l-1.437-8.335a24.648 24.648 0 01-8.492-3.527l-7.002 4.781-5.29-5.291 4.885-6.911a24.613 24.613 0 01-3.514-8.491L62 174.658v-7.473l8.335-1.437a24.535 24.535 0 013.527-8.491l-4.781-7.003 5.29-5.291 6.925 4.886a24.374 24.374 0 018.491-3.514L91.355 138h7.473l1.437 8.335a24.549 24.549 0 018.492 3.527l7.002-4.781 5.291 5.291-4.886 6.911a24.57 24.57 0 013.501 8.478zM95 155.519c-8.544 0-15.468 6.937-15.468 15.468 0 8.531 6.924 15.468 15.468 15.468s15.468-6.924 15.468-15.468-6.924-15.468-15.468-15.468z" fill="#84B5FF"/><mask id="mask0" maskUnits="userSpaceOnUse" x="0" y="0" width="320" height="382"><rect width="320" height="382" rx="16" fill="#3D27C7"/></mask><g mask="url(#mask0)"><path opacity=".1" d="M189.973 189.801l-11.816-4.629-.401-.157-11.816-4.629s-.656 41.063-82.493 176.672l18.622 7.983 7.482 3.302 18.857 8.502c32.051-155.116 61.565-187.044 61.565-187.044z" fill="#84B5FF"/><path opacity=".5" d="M183.103 180.745l-4.718-.92.373-.952-3.569-2.866S104.107 377.293 75.227 401.06l-1.795 6.898 11.732 6.497 2.57.068 11.82 4.937 3.076.147c-5.05-37.059 80.473-238.862 80.473-238.862z" fill="#fff"/><g filter="url(#filter0_d)"><path d="M201.975 176.997c-4.467 11.949-32.603 29.421-32.603 29.421s-9.229-33.104-4.762-45.053c4.467-11.95 14.059-11.732 24.377-7.415 10.317 4.316 17.455 11.097 12.988 23.047z" fill="#06B25F"/><path opacity=".5" d="M197.349 172.105c-3.094 8.259-23.651 23.188-23.651 23.188s-5.324-25.729-2.229-33.99c3.095-8.259 9.739-8.109 16.885-5.126 7.146 2.983 12.09 7.669 8.995 15.928z" fill="#66D6A0"/><path d="M193.753 165.737c-1.806 4.797-15.267 17.352-15.267 17.352s-1.645-18.826.162-23.623c1.806-4.797 5.684-4.71 9.855-2.979 4.171 1.732 7.057 4.453 5.25 9.25z" fill="#66D6A0"/><path d="M188.832 119.02s-30.848 1.167-40.421 27.572c0 0 .599 3.589 4.506 1.211 3.904-2.38 9.69-10.991 26.537-3.967l9.378-24.816z" fill="#A6CAFF"/><path d="M213.504 130.982s22.011 23.207 12.437 49.612c0 0-2.703 2.212-4.085-2.371-1.38-4.583-.222-15.124-17.069-22.148l8.717-25.093z" fill="#84B5FF"/><path d="M241.763 109.073c4.064-10.928 5.71-22.094 5.812-32.4l-25.314-10.24-3.395 9.129c9.366 3.788 14.565 13.293 11.613 21.228-2.951 7.936-12.936 11.302-22.303 7.513L191 150.488l16.567 6.701c12.747-7.914 25.785-25.502 34.196-48.116z" fill="#276ED8"/><path d="M198.3 84.071c2.951-7.936 12.936-11.299 22.3-7.512l3.395-9.128-25.312-10.238c-6.591 7.682-12.593 17.087-16.657 28.014-8.41 22.615-10.153 44.772-5.857 59.579l16.565 6.7 17.177-46.187c-9.363-3.787-14.562-13.292-11.611-21.228zm-22.64 63.663c-.38-.161-.783-.012-.9.33l-.997 2.902c-.118.344.094.751.474.912l14.493 6.14 1.425-4.147-14.494-6.139-.001.002z" fill="#3E85EE"/><path d="M204.053 159.708l-14.481-6.134-1.424 4.147 14.481 6.134c.38.161.782.013.901-.33l.996-2.902c.12-.343-.093-.753-.473-.915z" fill="#276ED8"/><path d="M225.061 94.935c1.962-5.562-1.468-12.248-7.661-14.935l-6.207 21.501c6.19 2.686 11.907-1.006 13.868-6.566z" fill="#84B5FF"/><path d="M203.556 86.084c-1.964 5.57 1.469 12.265 7.669 14.957l7.111-20.169c-6.198-2.69-12.817-.358-14.78 5.212z" fill="#A6CAFF"/><path d="M225.052 94.076c-2.025 5.568-8.426 5.978-13.832 6.45l-1.684 4.632c6.739 1.438 18.249 1.426 21.225-8.911 2.954-8.125-2.008-16.773-11.058-20.536l-2.988 3.732c6.198 2.58 10.362 9.064 8.337 14.633z" fill="#06B25F"/><path d="M198.309 83.856c-2.983 8.206 1.959 17.614 11.94 21.779l1.7-4.677c-6.213-2.584-10.518-9.327-8.474-14.95 2.044-5.624 8.736-8.088 14.948-5.504l1.7-4.677c-9.063-3.775-18.831-.178-21.814 8.03z" fill="#66D6A0"/><path d="M237.082 32L225 65.28l23.987 10.066C249.32 52.657 242.323 34.2 237.082 32z" fill="#84B5FF"/><path d="M237.067 32.065c-5.238-2.198-22.018 6.282-36.067 23.215l23.985 10.065 12.082-33.28z" fill="#A6CAFF"/></g><path opacity=".07" d="M138.752 348.539a76.58 76.58 0 00-25.869-24.35c-34.027-19.562-75.463-9.098-92.554 23.372l-.224.424a115.993 115.993 0 018.846 27.62l178.69 102.729 71.662-91.063c-7.452-8.27-31.195-32.375-41.353-38.215-32.975-18.965-70.896-17.909-99.198-.517z" fill="#276ED8"/><path d="M90.572 401.063c-2.194-16.009-6.826-30.245-14.081-41.699-20.896-33.02-58.037-34.342-95.279-8.704-.57-16.058-4.124-30.311-10.944-41.102-3.502-5.541-7.66-9.811-12.31-12.888-.596 17.845-5.665 38.192-15.274 58.197l97.46 56.153 51.219 29.509c1.124-13.898.881-27.201-.79-39.466z" fill="#fff" fill-opacity=".3"/><path opacity=".07" d="M67.495 377.153c-.215-13.5-5.148-24.768-14.51-30.105l-.118-.067c.46-.807.914-1.618 1.353-2.443 16.71-31.358 14.003-66.041-6.046-77.471-6.347-3.618-13.668-4.466-21.243-2.949 4.638-29.895-3.233-56.475-22.664-67.553-5.749-3.277-12.063-4.947-18.674-5.152l-72.121 135.342L21.44 388.307l38.26 21.812c5.396-11.185 7.955-22.718 7.794-32.966z" fill="#276ED8"/><path opacity=".6" d="M136.012 363.063c-10.311-13.716-24.745-22.626-40.19-23.093l-.195-.006a89.393 89.393 0 00-.16-3.226c-2.863-41.051-31.997-75.138-65.075-76.139-10.472-.317-20.074 2.725-28.229 8.324-16.568-33.104-46-56.132-78.058-57.103-9.485-.287-18.465 1.376-26.72 4.696l12.36 177.182 178.132 5.391L151 401c-1.713-14.341-7.161-27.524-14.988-37.937z" fill="#fff"/><path opacity=".07" d="M65.643 389.127c-4.138-16.32-15.002-27.916-31.09-30.395l-.2-.033c.487-1.178.967-2.359 1.424-3.553 17.203-45.276 3.22-86.303-31.245-91.622-10.912-1.682-22.56.421-33.936 5.511-.552-17.769-5.092-33.519-13.134-45.823l-53.551 100.383 162.651 93.423c1.544-10.133 1.18-19.627-.919-27.891z" fill="#276ED8"/><path opacity=".6" d="M289.615 347.06c-7.619-7.038-17.094-12.672-27.935-16.092-34.259-10.802-69.158 4.549-77.939 34.274a42.923 42.923 0 00-.625 2.359l-.199-.062c-15.992-5.042-32.152-3.411-44.738 3.256-9.554 5.064-17.048 13.027-20.856 23.168l65.39 20.615 134.718 42.462 66.377-123.553a105.812 105.812 0 00-5.561-1.92c-33.206-10.471-66.839-3.507-88.632 15.493z" fill="#fff"/></g><defs><clipPath id="clip0"><path fill="#fff" transform="rotate(-30 118.035 -100.373)" d="M0 0h75.141v75.141H0z"/></clipPath><filter id="filter0_d" x="136.411" y="23.723" width="124.588" height="198.695" filterUnits="userSpaceOnUse" color-interpolation-filters="sRGB"><feFlood flood-opacity="0" result="BackgroundImageFix"/><feColorMatrix in="SourceAlpha" values="0 0 0 0 0 0 0 0 0 0 0 0 0 0 0 0 0 0 127 0" result="hardAlpha"/><feOffset dy="4"/><feGaussianBlur stdDeviation="6"/><feColorMatrix values="0 0 0 0 0.160784 0 0 0 0 0.0941176 0 0 0 0 0.435294 0 0 0 0.2 0"/><feBlend in2="BackgroundImageFix" result="effect1_dropShadow"/><feBlend in="SourceGraphic" in2="effect1_dropShadow" result="shape"/></filter></defs></svg>