<svg width="40" height="44" fill="none" xmlns="http://www.w3.org/2000/svg"><path d="M38.81 28.222c2.893-13.002-8.5-24.814-21.877-22.547C9.67 1.17 0 6.261 0 14.902c0 2.009.554 3.89 1.518 5.512-2.689 13.032 8.797 24.674 22.163 22.251 9.45 4.996 19.89-4.967 15.129-14.443zm-12.718 7.84c-3.51 1.444-9.286 1.453-12.78-.377-4.984-2.657-5.87-8.639-1.57-8.639 3.24 0 2.214 3.778 5.486 5.318 1.502.694 4.73.765 6.606-.5 1.854-1.24 1.684-3.191.676-4.123-2.669-2.464-10.306-1.485-13.798-5.799-1.516-1.871-1.803-5.172.062-7.566 3.25-4.182 12.787-4.437 16.888-1.279 3.787 2.93 2.764 6.819-.291 6.819-3.675 0-1.743-4.808-7.676-4.808-4.3 0-5.992 3.058-2.963 4.547 4.105 2.039 14.568 1.358 14.568 9.327-.008 3.317-2.04 5.789-5.208 7.08z" fill="#fff"/></svg>