<svg width="41" height="40" fill="none" xmlns="http://www.w3.org/2000/svg"><g clip-path="url(#clip0)"><path d="M20.009.004h-.01C8.974.004.008 8.972.008 20c0 4.374 1.41 8.428 3.807 11.72l-2.492 7.43 7.686-2.457a19.823 19.823 0 0011 3.304c11.025 0 19.99-8.97 19.99-19.996C40 8.975 31.035.004 20.01.004zm11.635 28.237c-.482 1.362-2.397 2.492-3.924 2.822-1.045.222-2.41.4-7.004-1.505-5.876-2.434-9.66-8.406-9.955-8.793-.283-.387-2.375-3.162-2.375-6.031 0-2.87 1.457-4.267 2.045-4.867.482-.492 1.28-.717 2.044-.717.248 0 .47.012.67.022.588.025.883.06 1.27.988.482 1.162 1.657 4.031 1.797 4.326.143.295.285.695.085 1.082-.187.4-.352.578-.647.918-.295.34-.575.6-.87.965-.27.317-.575.657-.235 1.244.34.575 1.515 2.492 3.244 4.032 2.232 1.987 4.042 2.622 4.69 2.892.482.2 1.057.152 1.41-.223.447-.482.999-1.282 1.561-2.07.4-.564.905-.634 1.435-.434.54.188 3.397 1.6 3.984 1.892.587.295.975.435 1.117.683.14.247.14 1.41-.342 2.774z" fill="#fff"/></g><defs><clipPath id="clip0"><path fill="#fff" transform="translate(.004)" d="M0 0h40v40H0z"/></clipPath></defs></svg>