<svg width="126" height="230" fill="none" xmlns="http://www.w3.org/2000/svg"><g opacity=".12"><path d="M112.618 0H13.382C5.992 0 0 5.975 0 13.35v202.322c0 7.432 6.055 13.35 13.382 13.35h99.236c7.388 0 13.382-5.973 13.382-13.35V13.35C126 5.91 119.937 0 112.618 0z" fill="#276ED8"/><path d="M119.515 18.194H6.489v192.633h113.026V18.194zM86.303 12.14h-46.42a.971.971 0 01-.973-.97v-.474a.97.97 0 01.973-.97h46.42a.97.97 0 01.973.97v.474a.974.974 0 01-.973.97z" fill="#fff"/><path d="M119.515 199.434H6.489v11.395h113.026v-11.395zm0-181.24H6.489v10.222h113.026V18.194z" fill="#84B5FF"/></g></svg>