<svg width="541" height="395" fill="none" xmlns="http://www.w3.org/2000/svg"><path opacity=".04" d="M185.318 364.822c99.164 29.786 259.394.234 312.766-58.249 53.372-58.483-3.842-128.566-43.15-155.06-12.23-8.197-25.913-14.265-35.898-25.41-21.801-24.406-29.653-63.153-56.728-80.496-23.418-15.02-50.789-1.689-76.714-10.648-11.314-3.835-29.915-19.897-49.031-23.394C194.284 3.83 92.249 43.305 80.849 84.082c-11.4 40.777-31.32 239.953 104.469 280.74z" fill="#276ED8"/><path opacity=".2" d="M326.75 173.199l12.25-2.304v-10.982l-12.25-2.112a36.232 36.232 0 00-5.184-12.481l7.027-10.31-7.776-7.776-10.157 7.181a36.031 36.031 0 00-12.48-5.165L295.876 117h-10.983l-2.112 12.25a36.219 36.219 0 00-12.48 5.184l-10.291-7.027-7.776 7.776 7.181 10.157a36.184 36.184 0 00-5.165 12.48L242 160.124v10.982l12.25 2.113a36.066 36.066 0 005.184 12.48l-7.027 10.291 7.776 7.776 10.176-7.181a35.8 35.8 0 0012.48 5.165l2.304 12.25h10.983l2.112-12.25a36.066 36.066 0 0012.48-5.184l10.291 7.027 7.776-7.776-7.18-10.157a36.126 36.126 0 005.145-12.461zm-36.25 15.053c-12.557 0-22.733-10.195-22.733-22.733s10.176-22.733 22.733-22.733 22.733 10.176 22.733 22.733-10.176 22.733-22.733 22.733z" fill="#84B5FF"/><path d="M62.56 125.32v102.47c0 5.1 4.14 9.24 9.24 9.24h126.8c5.1 0 9.24-4.14 9.24-9.24V125.32c0-5.1-4.14-9.24-9.24-9.24H71.79c-5.1.01-9.23 4.14-9.23 9.24zm136.17 106.97H135.2L72 232c-1.89 0-3.75-1.24-3.75-3.13V124.24c0-1.89 1.53-3.42 3.42-3.42h127.06c1.89 0 3.42 1.53 3.42 3.42v104.63c0 1.89-1.53 3.42-3.42 3.42zM340.91 235c-11.55 0-20.91 9.36-20.91 20.91s9.36 20.91 20.91 20.91 20.91-9.36 20.91-20.91S352.46 235 340.91 235zm0 36.61c-8.68 0-15.71-7.03-15.71-15.71s7.03-15.71 15.71-15.71 15.71 7.03 15.71 15.71-7.03 15.71-15.71 15.71z" fill="#66D6A0"/><path d="M295.67 173.81V306.8c0 3.42-2.77 6.19-6.19 6.19H86.68c-3.42 0-6.19-2.77-6.19-6.19V173.81c0-7.89 6.4-14.3 14.3-14.3h186.58c7.9 0 14.3 6.41 14.3 14.3z" fill="#fff" stroke="#84B5FF" stroke-miterlimit="10"/><path d="M295.67 173.81v.6H80.49v-.6c0-7.89 6.4-14.3 14.3-14.3h186.58c7.9 0 14.3 6.41 14.3 14.3z" fill="#84B5FF"/><path opacity=".2" d="M213.55 185.04h-11.38a1.83 1.83 0 010-3.66h11.38a1.83 1.83 0 010 3.66zm21.51 0h-11.38a1.83 1.83 0 010-3.66h11.38c1.01 0 1.83.82 1.83 1.83.01 1.01-.81 1.83-1.83 1.83zm21.85 0h-11.38a1.83 1.83 0 010-3.66h11.38a1.83 1.83 0 010 3.66zm21.51 0h-11.38a1.83 1.83 0 010-3.66h11.38c1.01 0 1.83.82 1.83 1.83.01 1.01-.81 1.83-1.83 1.83zm-22.7 28.54H207.9c-.93 0-1.68-.75-1.68-1.68v-5.77c0-.93.75-1.68 1.68-1.68h47.82c.93 0 1.68.75 1.68 1.68v5.77c0 .92-.75 1.68-1.68 1.68zm-13.65 11.02h-34.23a1.62 1.62 0 110-3.24h34.23a1.62 1.62 0 110 3.24zm34.25 7.84h-68.48a1.62 1.62 0 110-3.24h68.48a1.62 1.62 0 110 3.24zm0 7.84h-68.48a1.62 1.62 0 110-3.24h68.48a1.62 1.62 0 110 3.24zm-.221 7.96h-68.48a1.62 1.62 0 110-3.24h68.48a1.62 1.62 0 110 3.24z" fill="#276ED8"/><path opacity=".1" d="M295.67 284.34v22.46c0 3.42-2.77 6.19-6.19 6.19H86.68c-3.42 0-6.19-2.77-6.19-6.19v-22.46h215.18z" fill="#84B5FF"/><path d="M262.99 167.65c0 1.03-.83 1.86-1.86 1.86-1.03 0-1.86-.83-1.86-1.86 0-1.03.83-1.86 1.86-1.86 1.02 0 1.86.83 1.86 1.86zm10.18 0c0 1.03-.83 1.86-1.86 1.86-1.03 0-1.86-.83-1.86-1.86 0-1.03.83-1.86 1.86-1.86 1.02 0 1.86.83 1.86 1.86zm9.73 0c0 1.03-.83 1.86-1.86 1.86-1.03 0-1.86-.83-1.86-1.86 0-1.03.83-1.86 1.86-1.86 1.03 0 1.86.83 1.86 1.86z" fill="#84B5FF"/><path opacity=".1" d="M296 174.255v132.574c0 3.41-2.768 6.171-6.185 6.171H87.185c-3.417 0-6.185-2.761-6.185-6.171V174.255C81 166.39 87.395 160 95.288 160h186.424c7.893 0 14.288 6.39 14.288 14.255z" stroke="#276ED8" stroke-miterlimit="10"/><g filter="url(#filter0_d)"><path d="M187.63 191.58v61.85a2.58 2.58 0 01-2.58 2.58h-82.47a2.58 2.58 0 01-2.58-2.58v-61.85a2.58 2.58 0 012.58-2.58h82.47c1.43.01 2.58 1.16 2.58 2.58z" fill="#06B25F"/></g><path d="M187.63 230.99v22.44a2.58 2.58 0 01-2.58 2.58h-82.47a2.58 2.58 0 01-2.58-2.58v-21.59s14.07-24.26 24.05-24.26c12.44 0 19.51 28.31 25.69 28.31s14.23-19.47 22.41-19.47c4.92-.01 11.22 8.08 15.48 14.57zm-11.25-28.12c0 3.15-2.56 5.71-5.71 5.71s-5.71-2.56-5.71-5.71 2.56-5.71 5.71-5.71c3.16.01 5.71 2.56 5.71 5.71z" fill="#66D6A0"/><g filter="url(#filter1_d)"><path d="M243.88 104.01v42.37c0 2.22-1.8 4.01-4.01 4.01h-62a4.01 4.01 0 01-4.01-4.01v-42.37c0-2.22 1.8-4.01 4.01-4.01h62c2.21 0 4.01 1.8 4.01 4.01z" fill="#84B5FF"/></g><path d="M243.88 140.72v5.67c0 2.22-1.8 4.01-4.01 4.01h-62a4.01 4.01 0 01-4.01-4.01v-5.67h70.02z" fill="#276ED8"/><path opacity=".8" d="M211.03 146.03c0 .47.14.9.39 1.27H180.1c-.7 0-1.27-.56-1.27-1.27 0-.7.57-1.27 1.27-1.27h31.32c-.24.37-.39.8-.39 1.27z" fill="#84B5FF"/><path d="M221.86 146.03c0 .7-.57 1.27-1.27 1.27h-9.16c-.25-.37-.39-.8-.39-1.27s.14-.9.39-1.27h9.16c.69.01 1.27.58 1.27 1.27z" fill="#84B5FF"/><path d="M215.53 146.03a2.242 2.242 0 01-2.25 2.25 2.242 2.242 0 01-2.24-2.25 2.242 2.242 0 012.24-2.25c.78 0 1.46.39 1.86.98.24.37.39.8.39 1.27z" fill="#fff"/><path d="M214.38 146.03c0 .61-.49 1.1-1.1 1.1-.61 0-1.1-.49-1.1-1.1 0-.61.49-1.1 1.1-1.1.61 0 1.1.49 1.1 1.1zm16.92 1.12v-2.11c0-.28.29-.46.54-.33l2.11 1.06c.27.14.27.53 0 .66l-2.11 1.06a.376.376 0 01-.54-.34zm5.69-.41v-1.29c0-.17.14-.28.26-.2l1.02.65c.13.08.13.32 0 .41l-1.02.65c-.12.06-.26-.05-.26-.22z" fill="#84B5FF"/><path d="M238.37 146.74v-1.29c0-.17.14-.28.26-.2l1.02.65c.13.08.13.32 0 .41l-1.02.65c-.12.06-.26-.05-.26-.22zm-9.67 0v-1.29c0-.17-.14-.28-.26-.2l-1.02.65c-.13.08-.13.32 0 .41l1.02.65c.12.06.26-.05.26-.22z" fill="#84B5FF"/><path d="M227.32 146.74v-1.29c0-.17-.14-.28-.26-.2l-1.02.65c-.13.08-.13.32 0 .41l1.02.65c.12.06.26-.05.26-.22z" fill="#84B5FF"/><path d="M221.009 123.875c1.593-6.706-2.553-13.434-9.26-15.026-6.706-1.592-13.434 2.554-15.026 9.26-1.592 6.707 2.554 13.434 9.26 15.026 6.707 1.592 13.434-2.553 15.026-9.26z" fill="#FBF8FF"/><path d="M205.57 124.84v-7.68c0-.85.94-1.36 1.65-.9l5.9 3.84c.65.42.65 1.37 0 1.79l-5.9 3.84c-.71.47-1.65-.04-1.65-.89z" fill="#276ED8"/><g filter="url(#filter2_d)"><path d="M113.918 312.08l8.082-1.52v-7.246l-8.082-1.394a23.893 23.893 0 00-3.421-8.234l4.637-6.803-5.131-5.131-6.701 4.738a23.798 23.798 0 00-8.235-3.408L93.547 275h-7.246l-1.394 8.082a23.896 23.896 0 00-8.234 3.421l-6.79-4.637-5.13 5.131 4.737 6.701a23.887 23.887 0 00-3.408 8.235L58 303.453v7.246l8.082 1.394a23.8 23.8 0 003.42 8.234l-4.636 6.79 5.13 5.131 6.715-4.738a23.642 23.642 0 008.234 3.408l1.52 8.082h7.247l1.393-8.082a23.802 23.802 0 008.235-3.421l6.79 4.637 5.13-5.131-4.737-6.701a23.855 23.855 0 003.395-8.222zM90 322.012c-8.285 0-15-6.727-15-14.999 0-8.273 6.715-15 15-15s14.999 6.715 14.999 15S98.285 322.012 90 322.012z" fill="#84B5FF"/></g><g filter="url(#filter3_d)"><path d="M47.687 273.322l5.857 2.053 2.737-4.726-4.758-3.961a18.084 18.084 0 00.875-6.666L58 257.333l-1.416-5.282-6.16.572a18.147 18.147 0 00-4.09-5.329l2.053-5.855-4.727-2.737-3.962 4.757a18.106 18.106 0 00-6.669-.875L30.34 237l-5.283 1.416.573 6.173a18.132 18.132 0 00-5.332 4.089l-5.857-2.053-2.737 4.726 4.759 3.961a18.088 18.088 0 00-.876 6.666L10 264.667l1.416 5.282 6.175-.572a17.88 17.88 0 004.09 5.329l-2.052 5.855 4.726 2.737 3.963-4.757a18.107 18.107 0 006.669.875l2.69 5.584 5.283-1.416-.573-6.173a17.633 17.633 0 005.3-4.089zm-19.369-2.529c-5.41-3.119-7.257-10.04-4.138-15.449 3.12-5.409 10.043-7.255 15.454-4.137 5.411 3.119 7.257 10.04 4.138 15.449-3.12 5.409-10.042 7.255-15.454 4.137z" fill="#84B5FF"/></g><path fill="#66D6A0" d="M79 232h21v5H79z"/><g clip-path="url(#clip0)"><path d="M165.365 327.007l10.25-50.04c2.035-9.934 11.51-16.043 20.894-13.315l4.241 1.232c1.523.443 3.099.669 4.686.672l9.469.02 38.963.085 10.262.022a19.661 19.661 0 005.202-.689l4.781-1.299c10.839-2.944 22.155 3.75 24.637 14.757l12.783 56.704c2.138 9.483-3.237 18.547-12.467 21.149-10.267 2.895-21.359-3.544-24.185-13.871l-4.389-16.037c-.911-3.327-3.904-5.737-7.3-5.894l-56.903-2.626c-3.077-.142-5.761 1.881-6.573 4.94l-3.881 14.624c-2.471 9.313-11.967 13.82-20.477 9.858-7.433-3.459-11.67-12.106-9.993-20.292z" fill="url(#paint0_linear)"/><path opacity=".3" d="M215.231 291.952l31.697.887c2.822.079 5.12-2.535 5.12-5.838v-21.33l-41.592-.103v20.502c0 3.175 2.133 5.808 4.775 5.882z" fill="url(#paint1_linear)"/><path d="M257.699 286.868c0 9.271 7.565 17.033 17.024 17.341 9.604.313 17.497-7.153 17.497-16.68 0-9.528-7.893-17.295-17.497-17.35-9.46-.054-17.024 7.418-17.024 16.689z" fill="url(#paint2_linear)"/><path d="M238.39 308.931c0 7.494 6.01 13.86 13.508 14.223 7.589.369 13.809-5.539 13.809-13.199 0-7.661-6.22-14.034-13.809-14.235-7.497-.198-13.508 5.718-13.508 13.211z" fill="#68A4FF"/><path d="M240.994 309.029c0 6.049 4.858 11.178 10.904 11.458 6.106.284 11.1-4.477 11.1-10.634s-4.994-11.291-11.1-11.466c-6.046-.172-10.904 4.592-10.904 10.642z" fill="#4389F2"/><path d="M244.616 309.205c0 3.402 2.732 6.286 6.132 6.444 3.434.159 6.242-2.517 6.242-5.979 0-3.463-2.808-6.35-6.242-6.448-3.4-.098-6.132 2.582-6.132 5.983z" fill="#276ED8"/><path d="M198.16 307.257c0 7.221 5.579 13.344 12.536 13.682 7.039.341 12.805-5.357 12.805-12.733 0-7.375-5.766-13.505-12.805-13.691-6.957-.184-12.536 5.522-12.536 12.742z" fill="#68A4FF"/><path d="M200.576 307.347c0 5.828 4.51 10.762 10.12 11.022 5.664.262 10.294-4.329 10.294-10.258 0-5.928-4.631-10.866-10.294-11.028-5.61-.16-10.12 4.436-10.12 10.264z" fill="#4389F2"/><path d="M202.913 307.499c0 3.401 2.732 6.285 6.132 6.444 3.434.159 6.242-2.518 6.242-5.98 0-3.462-2.808-6.349-6.242-6.447-3.4-.098-6.132 2.582-6.132 5.983z" fill="#276ED8"/><path d="M257.694 276.729a2.082 2.082 0 002.109-2.086v-3.705a2.12 2.12 0 00-2.109-2.118 2.088 2.088 0 00-2.101 2.091v3.694c0 1.16.94 2.111 2.101 2.124z" fill="#5483FC"/><path d="M206.548 276.108c1.062.012 1.922-.88 1.922-1.991v-3.539c0-1.112-.861-2.018-1.922-2.023-1.058-.005-1.916.89-1.916 1.998v3.526c0 1.109.858 2.018 1.916 2.029z" fill="url(#paint3_linear)"/><path d="M272.913 274.867l3.625.034c1.069.01 1.936.872 1.936 1.924v4.138c0 .375-.112.74-.323 1.049l-1.64 2.404a1.901 1.901 0 01-1.608.822l-.36-.007a1.97 1.97 0 01-1.604-.876l-1.626-2.447a1.907 1.907 0 01-.32-1.052v-4.113a1.886 1.886 0 011.92-1.876z" fill="url(#paint4_linear)"/><path d="M272.913 299.451l3.625.105c1.069.031 1.936-.797 1.936-1.85v-4.137c0-.375-.112-.744-.323-1.061l-1.64-2.468a1.984 1.984 0 00-1.608-.884l-.36-.007a1.884 1.884 0 00-1.604.815l-1.626 2.384c-.208.305-.32.667-.32 1.04v4.113c.001 1.046.859 1.919 1.92 1.95z" fill="url(#paint5_linear)"/><path d="M287.332 285.63v3.609c0 1.06-.88 1.9-1.963 1.877l-4.241-.093a2.011 2.011 0 01-1.076-.343l-2.477-1.667a1.942 1.942 0 01-.865-1.604v-.355c0-.638.325-1.228.865-1.571l2.477-1.572a1.937 1.937 0 011.076-.301l4.241.069c1.084.018 1.963.891 1.963 1.951z" fill="url(#paint6_linear)"/><path d="M262.361 285.187v3.54c0 1.039.846 1.901 1.892 1.924l4.129.091c.376.008.743-.094 1.056-.293l2.444-1.553c.536-.341.859-.927.859-1.563v-.354c0-.636-.323-1.235-.859-1.597l-2.444-1.646a1.955 1.955 0 00-1.056-.334l-4.129-.066a1.85 1.85 0 00-1.892 1.851z" fill="url(#paint7_linear)"/><path d="M272.103 275.047l3.626.035c1.068.01 1.936.871 1.936 1.924v4.137c0 .375-.112.74-.323 1.049l-1.64 2.404a1.899 1.899 0 01-1.608.822l-.36-.006a1.974 1.974 0 01-1.604-.877l-1.626-2.446a1.903 1.903 0 01-.32-1.053v-4.112a1.886 1.886 0 011.919-1.877zm0 24.584l3.626.105c1.068.031 1.936-.797 1.936-1.85v-4.137c0-.375-.112-.744-.323-1.061l-1.64-2.468a1.987 1.987 0 00-1.608-.884l-.36-.007a1.884 1.884 0 00-1.604.815l-1.626 2.384a1.84 1.84 0 00-.32 1.04v4.113c.001 1.046.859 1.919 1.919 1.95zm14.42-13.821v3.61c0 1.06-.88 1.9-1.963 1.876l-4.241-.093a2.011 2.011 0 01-1.076-.343l-2.477-1.667a1.942 1.942 0 01-.865-1.604v-.355c0-.637.325-1.227.865-1.571l2.477-1.572a1.937 1.937 0 011.076-.301l4.241.069c1.084.018 1.963.891 1.963 1.951zm-24.972-.443v3.54c0 1.039.847 1.901 1.893 1.924l4.129.091c.376.008.743-.093 1.056-.293l2.444-1.553c.536-.341.858-.927.858-1.563v-.354c0-.636-.322-1.235-.858-1.597l-2.444-1.646a1.946 1.946 0 00-1.056-.333l-4.129-.067a1.85 1.85 0 00-1.893 1.851z" fill="#5483FC"/><path d="M204.986 285.765c0 8.842-6.801 15.788-15.086 15.518-8.168-.267-14.706-7.468-14.706-16.089 0-8.62 6.538-15.571 14.706-15.525 8.285.047 15.086 7.253 15.086 16.096z" fill="url(#paint8_linear)"/><path d="M186.119 275.506c0 2.217 1.69 4.038 3.782 4.068 2.099.03 3.807-1.755 3.807-3.987 0-2.231-1.708-4.052-3.807-4.067-2.092-.015-3.782 1.77-3.782 3.986z" fill="url(#paint9_linear)"/><path d="M186.119 295.3c0 2.216 1.69 4.066 3.782 4.131 2.099.065 3.807-1.69 3.807-3.921 0-2.232-1.708-4.081-3.807-4.132-2.092-.051-3.782 1.705-3.782 3.922z" fill="url(#paint10_linear)"/><path d="M199.331 281.597c-2.125-.033-3.843 1.751-3.843 3.985 0 2.235 1.718 4.085 3.843 4.133 2.133.049 3.868-1.735 3.868-3.985 0-2.249-1.735-4.099-3.868-4.133z" fill="url(#paint11_linear)"/><path d="M180.62 281.303c-2.059-.033-3.723 1.724-3.723 3.924 0 2.199 1.664 4.019 3.723 4.066 2.066.047 3.747-1.71 3.747-3.923 0-2.214-1.681-4.035-3.747-4.067z" fill="url(#paint12_linear)"/><path d="M185.31 275.687c0 2.216 1.69 4.038 3.781 4.067 2.099.03 3.807-1.755 3.807-3.987 0-2.231-1.708-4.052-3.807-4.067-2.091-.015-3.781 1.77-3.781 3.987zm0 19.793c0 2.217 1.69 4.067 3.781 4.132 2.099.064 3.807-1.691 3.807-3.922s-1.708-4.081-3.807-4.132c-2.091-.051-3.781 1.706-3.781 3.922zm13.212-13.703c-2.125-.033-3.843 1.751-3.843 3.986 0 2.234 1.718 4.084 3.843 4.133 2.133.048 3.868-1.736 3.868-3.985 0-2.25-1.735-4.1-3.868-4.134zm-18.711-.294c-2.059-.033-3.723 1.724-3.723 3.924 0 2.199 1.664 4.019 3.723 4.066 2.066.047 3.746-1.71 3.746-3.923s-1.681-4.035-3.746-4.067z" fill="#5483FC"/><path d="M242.3 346.18h-29.21a2.09 2.09 0 110-4.18h29.21a2.09 2.09 0 110 4.18zm0 10.43h-29.21a2.09 2.09 0 110-4.18h29.21a2.09 2.09 0 110 4.18z" fill="#66D6A0"/></g><defs><linearGradient id="paint0_linear" x1="269.642" y1="261.445" x2="211.608" y2="368.92" gradientUnits="userSpaceOnUse"><stop stop-color="#276ED8"/><stop offset=".996" stop-color="#84B5FF"/></linearGradient><linearGradient id="paint1_linear" x1="218.999" y1="293" x2="242.499" y2="266" gradientUnits="userSpaceOnUse"><stop stop-color="#84B5FF"/><stop offset=".996" stop-color="#276ED8"/></linearGradient><linearGradient id="paint2_linear" x1="265.257" y1="303.04" x2="289.094" y2="264.36" gradientUnits="userSpaceOnUse"><stop stop-color="#84B5FF"/><stop offset=".805" stop-color="#276ED8"/></linearGradient><linearGradient id="paint3_linear" x1="214.753" y1="248.434" x2="209.547" y2="263.52" gradientUnits="userSpaceOnUse"><stop stop-color="#AA80F9"/><stop offset=".996" stop-color="#6165D7"/></linearGradient><linearGradient id="paint4_linear" x1="257.397" y1="295.973" x2="261.563" y2="291.981" gradientUnits="userSpaceOnUse"><stop stop-color="#AA80F9"/><stop offset=".996" stop-color="#6165D7"/></linearGradient><linearGradient id="paint5_linear" x1="265.305" y1="304.225" x2="269.471" y2="300.233" gradientUnits="userSpaceOnUse"><stop stop-color="#AA80F9"/><stop offset=".996" stop-color="#6165D7"/></linearGradient><linearGradient id="paint6_linear" x1="265.322" y1="304.242" x2="269.487" y2="300.25" gradientUnits="userSpaceOnUse"><stop stop-color="#AA80F9"/><stop offset=".996" stop-color="#6165D7"/></linearGradient><linearGradient id="paint7_linear" x1="257.433" y1="296.01" x2="261.599" y2="292.018" gradientUnits="userSpaceOnUse"><stop stop-color="#AA80F9"/><stop offset=".996" stop-color="#6165D7"/></linearGradient><linearGradient id="paint8_linear" x1="180.999" y1="300.37" x2="197.565" y2="274.041" gradientUnits="userSpaceOnUse"><stop stop-color="#84B5FF"/><stop offset=".996" stop-color="#276ED8"/></linearGradient><linearGradient id="paint9_linear" x1="169.405" y1="296.113" x2="175.086" y2="290.448" gradientUnits="userSpaceOnUse"><stop stop-color="#AA80F9"/><stop offset=".996" stop-color="#6165D7"/></linearGradient><linearGradient id="paint10_linear" x1="179.306" y1="306.042" x2="184.987" y2="300.377" gradientUnits="userSpaceOnUse"><stop stop-color="#AA80F9"/><stop offset=".996" stop-color="#6165D7"/></linearGradient><linearGradient id="paint11_linear" x1="179.161" y1="305.897" x2="184.842" y2="300.232" gradientUnits="userSpaceOnUse"><stop stop-color="#AA80F9"/><stop offset=".996" stop-color="#6165D7"/></linearGradient><linearGradient id="paint12_linear" x1="169.626" y1="296.335" x2="175.307" y2="290.67" gradientUnits="userSpaceOnUse"><stop stop-color="#AA80F9"/><stop offset=".996" stop-color="#6165D7"/></linearGradient><filter id="filter0_d" x="90" y="183" width="107.63" height="87.01" filterUnits="userSpaceOnUse" color-interpolation-filters="sRGB"><feFlood flood-opacity="0" result="BackgroundImageFix"/><feColorMatrix in="SourceAlpha" values="0 0 0 0 0 0 0 0 0 0 0 0 0 0 0 0 0 0 127 0" result="hardAlpha"/><feOffset dy="4"/><feGaussianBlur stdDeviation="5"/><feColorMatrix values="0 0 0 0 0.0901961 0 0 0 0 0.0392157 0 0 0 0 0.396078 0 0 0 0.25 0"/><feBlend in2="BackgroundImageFix" result="effect1_dropShadow"/><feBlend in="SourceGraphic" in2="effect1_dropShadow" result="shape"/></filter><filter id="filter1_d" x="163.86" y="94" width="90.02" height="70.39" filterUnits="userSpaceOnUse" color-interpolation-filters="sRGB"><feFlood flood-opacity="0" result="BackgroundImageFix"/><feColorMatrix in="SourceAlpha" values="0 0 0 0 0 0 0 0 0 0 0 0 0 0 0 0 0 0 127 0" result="hardAlpha"/><feOffset dy="4"/><feGaussianBlur stdDeviation="5"/><feColorMatrix values="0 0 0 0 0.0901961 0 0 0 0 0.0392157 0 0 0 0 0.396078 0 0 0 0.25 0"/><feBlend in2="BackgroundImageFix" result="effect1_dropShadow"/><feBlend in="SourceGraphic" in2="effect1_dropShadow" result="shape"/></filter><filter id="filter2_d" x="48" y="269" width="84" height="84" filterUnits="userSpaceOnUse" color-interpolation-filters="sRGB"><feFlood flood-opacity="0" result="BackgroundImageFix"/><feColorMatrix in="SourceAlpha" values="0 0 0 0 0 0 0 0 0 0 0 0 0 0 0 0 0 0 127 0" result="hardAlpha"/><feOffset dy="4"/><feGaussianBlur stdDeviation="5"/><feColorMatrix values="0 0 0 0 0.0885677 0 0 0 0 0.0395834 0 0 0 0 0.395833 0 0 0 0.25 0"/><feBlend in2="BackgroundImageFix" result="effect1_dropShadow"/><feBlend in="SourceGraphic" in2="effect1_dropShadow" result="shape"/></filter><filter id="filter3_d" x="0" y="231" width="68" height="68" filterUnits="userSpaceOnUse" color-interpolation-filters="sRGB"><feFlood flood-opacity="0" result="BackgroundImageFix"/><feColorMatrix in="SourceAlpha" values="0 0 0 0 0 0 0 0 0 0 0 0 0 0 0 0 0 0 127 0" result="hardAlpha"/><feOffset dy="4"/><feGaussianBlur stdDeviation="5"/><feColorMatrix values="0 0 0 0 0.0885677 0 0 0 0 0.0395834 0 0 0 0 0.395833 0 0 0 0.25 0"/><feBlend in2="BackgroundImageFix" result="effect1_dropShadow"/><feBlend in="SourceGraphic" in2="effect1_dropShadow" result="shape"/></filter><clipPath id="clip0"><path fill="#fff" transform="matrix(-1 0 0 1 312 263)" d="M0 0h147v94H0z"/></clipPath></defs></svg>