<svg width="550" height="395" fill="none" xmlns="http://www.w3.org/2000/svg"><mask id="mask0" maskUnits="userSpaceOnUse" x="0" y="0" width="550" height="395"><path fill="#C4C4C4" d="M0 0h550v395H0z"/></mask><g mask="url(#mask0)"><path opacity=".04" d="M100.58 299.689c58.537 50.653 132.036 58.363 185.818 33.588 53.783-24.776 47.525-60.749 28.713-91.084-5.867-9.406 103.233-32.515 99.774-43.303-7.53-23.607-12.722-27.775-25.952-48.037-11.435-17.539-107.884-31.588-122.837-45.649-6.549-6.084-28.656-64.966-94.348-89.525C115.611-5.307 69.11 34.193 53.107 77.384 37.103 120.576 20.423 230.33 100.58 299.69z" fill="#276ED8"/><path opacity=".2" d="M419.397 165.669l8.714-1.639v-7.812l-8.714-1.502a25.763 25.763 0 00-3.688-8.878l4.999-7.334-5.531-5.532-7.225 5.108a25.641 25.641 0 00-8.878-3.674l-1.639-8.714h-7.812l-1.503 8.714a25.766 25.766 0 00-8.877 3.688l-7.321-4.999-5.532 5.531 5.108 7.226a25.76 25.76 0 00-3.674 8.877l-8.713 1.639v7.813l8.713 1.502a25.686 25.686 0 003.688 8.878l-4.999 7.32 5.532 5.532 7.239-5.108a25.491 25.491 0 008.877 3.674l1.639 8.713h7.812l1.503-8.713a25.686 25.686 0 008.878-3.688l7.32 4.999 5.532-5.532-5.108-7.225a25.688 25.688 0 003.66-8.864zm-25.786 10.708c-8.933 0-16.171-7.252-16.171-16.171s7.238-16.171 16.171-16.171c8.932 0 16.171 7.239 16.171 16.171 0 8.932-7.239 16.171-16.171 16.171z" fill="#84B5FF"/><path d="M245.111 178.561v87.263c0 4.343 3.533 7.868 7.886 7.868h108.227c4.353 0 7.887-3.525 7.887-7.868v-87.263c0-4.343-3.534-7.869-7.887-7.869H252.989c-4.353.009-7.878 3.526-7.878 7.869zm116.224 91.095H252.886a2.915 2.915 0 01-2.919-2.913v-89.102a2.914 2.914 0 012.919-2.912h108.449a2.914 2.914 0 012.919 2.912v89.102a2.915 2.915 0 01-2.919 2.913zm-2.314-197.964c-11.55 0-20.91 9.36-20.91 20.91s9.36 20.91 20.91 20.91 20.91-9.36 20.91-20.91-9.36-20.91-20.91-20.91zm0 36.61c-8.68 0-15.71-7.03-15.71-15.71s7.03-15.71 15.71-15.71 15.71 7.03 15.71 15.71-7.03 15.71-15.71 15.71z" fill="#66D6A0"/><path d="M326.781 106.503v132.99c0 3.42-2.77 6.19-6.19 6.19h-202.8c-3.42 0-6.19-2.77-6.19-6.19v-132.99c0-7.89 6.4-14.3 14.3-14.3h186.58c7.9 0 14.3 6.41 14.3 14.3z" fill="#fff" stroke="#84B5FF" stroke-miterlimit="10"/><path d="M211.252 124.013h-24.137v2.029h24.137v-2.029z" fill="#84B5FF"/><path d="M239.562 124.013h-24.137v2.029h24.137v-2.029z" fill="#06B25F"/><path d="M231.999 134.96h-37.427v2.028h37.427v-2.028z" fill="#276ED8"/><path d="M257.202 134.96h-19.019v2.028h19.019v-2.028z" fill="#84B5FF"/><path d="M223.983 145.892h-16.434v2.028h16.434v-2.028zm64.027 0h-54.526v2.028h54.526v-2.028z" fill="#06B25F"/><path d="M282.631 156.833h-62.316v2.028h62.316v-2.028z" fill="#276ED8"/><path d="M223.914 167.765h-19.177v2.028h19.177v-2.028z" fill="#84B5FF"/><path d="M251.298 167.765h-19.177v2.028h19.177v-2.028z" fill="#276ED8"/><path d="M215.006 224.525h-27.891v2.028h27.891v-2.028z" fill="#84B5FF"/><path d="M252.66 224.525h-27.891v2.028h27.891v-2.028z" fill="#06B25F"/><path d="M289.319 224.525h-27.891v2.028h27.891v-2.028z" fill="#84B5FF"/><path d="M249.099 213.575h-54.526v2.028h54.526v-2.028z" fill="#276ED8"/><path d="M312.111 213.575h-54.525v2.028h54.525v-2.028zm-50.455-10.929h-54.107v2.028h54.107v-2.028z" fill="#84B5FF"/><path d="M281.426 202.646h-15.055v2.028h15.055v-2.028zm-57.041-10.945h-20.364v2.029h20.364v-2.029z" fill="#06B25F"/><path d="M255.56 191.701h-20.365v2.029h20.365v-2.029z" fill="#276ED8"/><path d="M289.041 191.701h-20.364v2.029h20.364v-2.029z" fill="#84B5FF"/><path d="M256.189 180.773h-28.556v2.029h28.556v-2.029z" fill="#06B25F"/><path d="M216.857 180.773h-28.555v2.029h28.555v-2.029z" fill="#276ED8"/><path d="M180.39 122.074h-2.602v2.606h2.602v-2.606zm0 95.368h-2.603v-5.298h2.603v5.298zm0-13.254h-2.603v-5.298h2.603v5.298zm0-13.254h-2.603v-5.299h2.603v5.299zm0-13.255h-2.603v-5.298h2.603v5.298zm0-13.254h-2.603v-5.298h2.603v5.298zm0-13.254h-2.603v-5.299h2.603v5.299zm0-13.255h-2.603v-5.298h2.603v5.298zm0 87.48h-2.602v2.606h2.602v-2.606z" fill="#84B5FF"/><path opacity=".7" d="M111.111 108.692a6 6 0 016-6h50v143h-50a6 6 0 01-6-6v-131z" fill="#84B5FF"/><path d="M139.726 126.016H115.59v2.028h24.136v-2.028z" fill="#06B25F"/><path d="M158.2 138.41h-37.427v2.028H158.2v-2.028zm0 12.396h-37.427v2.029H158.2v-2.029zm0 12.396h-37.427v2.029H158.2v-2.029zm0 12.393h-37.427v2.028H158.2v-2.028zm1.944 24.789h-37.428v2.028h37.428v-2.028zm0 12.397h-37.428v2.029h37.428v-2.029zm0 12.392h-37.428v2.028h37.428v-2.028z" fill="#84B5FF"/><path d="M139.726 187.989H115.59v2.029h24.136v-2.029z" fill="#06B25F"/><path d="M326.781 106.503v.6h-215.18v-.6c0-7.89 6.4-14.3 14.3-14.3h186.58c7.9 0 14.3 6.41 14.3 14.3z" fill="#84B5FF"/><path opacity=".3" d="M294.101 100.342c0 1.03-.83 1.86-1.86 1.86-1.03 0-1.86-.83-1.86-1.86 0-1.03.83-1.86 1.86-1.86 1.02 0 1.86.83 1.86 1.86zm10.18 0c0 1.03-.83 1.86-1.86 1.86-1.03 0-1.86-.83-1.86-1.86 0-1.03.83-1.86 1.86-1.86 1.02 0 1.86.83 1.86 1.86zm9.73 0c0 1.03-.83 1.86-1.86 1.86-1.03 0-1.86-.83-1.86-1.86 0-1.03.83-1.86 1.86-1.86 1.03 0 1.86.83 1.86 1.86z" fill="#fff"/><path d="M326.781 106.503v132.99c0 3.42-2.77 6.19-6.19 6.19h-202.8c-3.42 0-6.19-2.77-6.19-6.19v-132.99c0-7.89 6.4-14.3 14.3-14.3h186.58c7.9 0 14.3 6.41 14.3 14.3z" stroke="#84B5FF" stroke-miterlimit="10"/><g filter="url(#filter0_d)"><rect x="294.111" y="157.692" width="106" height="47.347" rx="6" fill="#84B5FF"/></g><path d="M330.517 190.521l-5.42-9.169 5.42-9.17 2.613 9.17-2.613 9.169zm-12.063-.895l-6.811-6.793h10.841l5.42 9.169-9.45-2.376zm0-16.577l9.422-2.376-5.42 9.169h-10.84l6.838-6.793zm13.842-6.877l-12.314 3.215-1.834 3.159-3.697-.028-9.034 8.834 9.034 8.833 3.697-.028 1.834 3.159 12.314 3.243 3.307-12.049-1.862-3.13 1.862-3.131-3.307-12.077zm27.962 8.918c-1.64 0-2.752.699-3.586 1.985h-.055v-1.65h-2.891v12.133h2.946v-6.877c0-1.649 1.029-2.796 2.446-2.796 1.335 0 2.335.811 2.335 2.237v7.464h2.947v-7.94c.027-2.655-1.64-4.556-4.142-4.556zm-11.007 7.352c0 1.621-.917 2.739-2.418 2.739-1.362 0-2.224-.782-2.224-2.208v-7.548h-2.946v8.107c0 2.656 1.501 4.389 4.197 4.389 1.696 0 2.64-.643 3.447-1.761h.083v1.426h2.835v-12.161h-2.946v7.017h-.028zm16.733-7.017h2.946v12.133h-2.946v-12.133zm0-3.773h2.946v2.432h-2.946v-2.432zm19.651 3.773l-1.751 5.479c-.389 1.119-.695 2.656-.695 2.656h-.083s-.389-1.537-.778-2.656l-1.974-5.479h-3.169l3.252 8.638c.695 1.845.918 2.628.918 3.299 0 1.006-.528 1.649-1.779 1.649h-1.14v2.544h1.891c2.445 0 3.307-.978 4.224-3.662l4.253-12.44h-3.169v-.028zm-11.201 8.582v-6.429h1.89v-2.125h-1.89v-3.801h-2.946v3.773h-1.668v2.125h1.668v7.128c0 2.293 1.723 2.908 3.279 2.908 1.279 0 1.612-.056 1.612-.056v-2.349h-.75c-.695.028-1.195-.279-1.195-1.174z" fill="#fff"/><g filter="url(#filter1_d)"><path d="M199.871 254.257l11.24-2.114v-10.077l-11.24-1.938a33.227 33.227 0 00-4.756-11.451l6.447-9.46-7.134-7.135-9.32 6.589a33.052 33.052 0 00-11.451-4.739l-2.114-11.24h-10.076l-1.938 11.24a33.227 33.227 0 00-11.451 4.756l-9.443-6.447-7.135 7.134 6.589 9.32a33.196 33.196 0 00-4.739 11.451l-11.239 2.114v10.076l11.239 1.938a33.084 33.084 0 004.757 11.451l-6.448 9.443 7.135 7.135 9.337-6.589a32.87 32.87 0 0011.451 4.739l2.114 11.239h10.076l1.938-11.239a33.084 33.084 0 0011.451-4.757l9.443 6.448 7.135-7.135-6.589-9.319a33.148 33.148 0 004.721-11.433zm-33.26 13.811c-11.522 0-20.859-9.354-20.859-20.858 0-11.504 9.337-20.858 20.859-20.858 11.521 0 20.858 9.337 20.858 20.858s-9.337 20.858-20.858 20.858z" fill="#276ED8"/></g><g filter="url(#filter2_d)"><path d="M247.798 315.015l5.856 2.052 2.738-4.725-4.759-3.962a18.097 18.097 0 00.876-6.666l5.602-2.689-1.417-5.282-6.159.573a18.14 18.14 0 00-4.09-5.33l2.053-5.855-4.727-2.736-3.963 4.757a18.083 18.083 0 00-6.668-.875l-2.69-5.585-5.284 1.416.573 6.173a18.171 18.171 0 00-5.331 4.089l-5.857-2.052-2.737 4.725 4.758 3.962a18.09 18.09 0 00-.875 6.666l-5.586 2.689 1.416 5.282 6.175-.573a17.903 17.903 0 004.09 5.33l-2.053 5.855 4.727 2.736 3.963-4.757a18.104 18.104 0 006.668.875l2.69 5.584 5.284-1.416-.573-6.173a17.626 17.626 0 005.3-4.088zm-19.369-2.53c-5.411-3.118-7.257-10.039-4.138-15.449 3.119-5.409 10.043-7.254 15.454-4.136 5.411 3.118 7.257 10.039 4.138 15.448-3.12 5.41-10.043 7.255-15.454 4.137z" fill="#84B5FF"/></g><g filter="url(#filter3_d)"><rect x="90.111" y="75.692" width="58" height="57" rx="6" fill="#06B25F"/></g><path d="M109.854 113.618l-13.277-7.18c-.858-.497-1.287-1.264-1.287-2.303 0-1.084.452-1.851 1.355-2.303l13.209-7.248v2.642c0 .18-.068.429-.203.745a1.332 1.332 0 01-.61.61l-9.416 5.148c-.361.271-.361.542 0 .812l10.229 5.487v3.59zm11.309-21.202h2.642l-6.571 22.489c-.181.588-.587.881-1.219.881h-1.694l6.842-23.37zm6.906 2.168l13.209 7.248c.948.497 1.422 1.264 1.422 2.303s-.474 1.784-1.422 2.235l-13.209 7.248v-2.641c0-.136.045-.362.135-.678.136-.316.339-.542.61-.677l9.483-5.081c.361-.27.361-.541 0-.812l-10.228-5.555v-3.59z" fill="#fff"/></g><defs><filter id="filter0_d" x="288.111" y="151.692" width="128" height="69.347" filterUnits="userSpaceOnUse" color-interpolation-filters="sRGB"><feFlood flood-opacity="0" result="BackgroundImageFix"/><feColorMatrix in="SourceAlpha" values="0 0 0 0 0 0 0 0 0 0 0 0 0 0 0 0 0 0 127 0" result="hardAlpha"/><feMorphology radius="3" operator="dilate" in="SourceAlpha" result="effect1_dropShadow"/><feOffset dx="5" dy="5"/><feGaussianBlur stdDeviation="4"/><feColorMatrix values="0 0 0 0 0 0 0 0 0 0 0 0 0 0 0 0 0 0 0.2 0"/><feBlend in2="BackgroundImageFix" result="effect1_dropShadow"/><feBlend in="SourceGraphic" in2="effect1_dropShadow" result="shape"/></filter><filter id="filter1_d" x="112.111" y="196.692" width="109" height="109" filterUnits="userSpaceOnUse" color-interpolation-filters="sRGB"><feFlood flood-opacity="0" result="BackgroundImageFix"/><feColorMatrix in="SourceAlpha" values="0 0 0 0 0 0 0 0 0 0 0 0 0 0 0 0 0 0 127 0" result="hardAlpha"/><feOffset dy="4"/><feGaussianBlur stdDeviation="5"/><feColorMatrix values="0 0 0 0 0.0885677 0 0 0 0 0.0395834 0 0 0 0 0.395833 0 0 0 0.25 0"/><feBlend in2="BackgroundImageFix" result="effect1_dropShadow"/><feBlend in="SourceGraphic" in2="effect1_dropShadow" result="shape"/></filter><filter id="filter2_d" x="200.111" y="272.692" width="68" height="68" filterUnits="userSpaceOnUse" color-interpolation-filters="sRGB"><feFlood flood-opacity="0" result="BackgroundImageFix"/><feColorMatrix in="SourceAlpha" values="0 0 0 0 0 0 0 0 0 0 0 0 0 0 0 0 0 0 127 0" result="hardAlpha"/><feOffset dy="4"/><feGaussianBlur stdDeviation="5"/><feColorMatrix values="0 0 0 0 0.0885677 0 0 0 0 0.0395834 0 0 0 0 0.395833 0 0 0 0.25 0"/><feBlend in2="BackgroundImageFix" result="effect1_dropShadow"/><feBlend in="SourceGraphic" in2="effect1_dropShadow" result="shape"/></filter><filter id="filter3_d" x="84.111" y="69.692" width="80" height="79" filterUnits="userSpaceOnUse" color-interpolation-filters="sRGB"><feFlood flood-opacity="0" result="BackgroundImageFix"/><feColorMatrix in="SourceAlpha" values="0 0 0 0 0 0 0 0 0 0 0 0 0 0 0 0 0 0 127 0" result="hardAlpha"/><feMorphology radius="3" operator="dilate" in="SourceAlpha" result="effect1_dropShadow"/><feOffset dx="5" dy="5"/><feGaussianBlur stdDeviation="4"/><feColorMatrix values="0 0 0 0 0 0 0 0 0 0 0 0 0 0 0 0 0 0 0.2 0"/><feBlend in2="BackgroundImageFix" result="effect1_dropShadow"/><feBlend in="SourceGraphic" in2="effect1_dropShadow" result="shape"/></filter></defs></svg>